<svg id="Layer_1" enable-background="new 0 0 256 256" height="512" viewBox="0 0 256 256" width="512" xmlns="http://www.w3.org/2000/svg"><g><g><g><path d="m229.659 76.657c0-12.24-9.922-22.165-22.165-22.165-12.24 0-22.161 9.925-22.161 22.165 0 6.341 2.667 12.057 6.936 16.097 4.077 4.016 6.608 9.601 6.608 15.778h17.237c0-6.111 2.476-11.642 6.475-15.652 4.348-4.047 7.07-9.816 7.07-16.223z" fill="#f8af23"/></g></g><g><g><path d="m207.495 54.492c-1.354 0-2.677.128-3.963.361 10.35 1.87 18.2 10.918 18.2 21.804 0 6.407-2.722 12.177-7.069 16.223-3.999 4.01-6.475 9.541-6.475 15.652h7.928c0-6.111 2.476-11.642 6.475-15.652 4.347-4.047 7.069-9.816 7.069-16.223-.001-12.24-9.922-22.165-22.165-22.165z" fill="#f8d323"/></g></g><g><g><path d="m131.543 136.022v5.3l-8.71 9.7h-.4l-8.71-9.7v-5.72c1.665.376 3.352.663 5.055.784.959.069 1.923.106 2.885.106h4.13c1.505 0 2.996-.078 4.487-.285.11-.016 1.263-.142 1.263-.185z" fill="#f8af23"/></g></g><g><g><path d="m121.663 136.492c-.962 0-1.925-.037-2.885-.106-1.703-.122-3.391-.408-5.055-.784v5.72l7.953 8.857v-13.687z" fill="#f87023"/></g></g><g><g><path d="m188.035 156.339h22.405l-24.745 61.521h-61.727-2.776-61.936l17.817-48.452c5.973-14.936 17.255-22.115 26.903-25.57l8.561 15.083 9.887-7.899h.001c.143 0 .28-.016.421-.02l-.018.02 9.889 7.899 8.545-15.056c9.632 3.467 20.869 10.648 26.828 25.543l7.47 17.816z" fill="#63bce7"/></g></g><g><g><path d="m89.602 188.039-3.771 29.822h-7.973z" fill="#6377e7"/></g></g><g><g><path d="m155.287 188.039 3.771 29.822h7.973z" fill="#6377e7"/></g></g><g><g><path d="m112.535 158.921-8.545-15.056-.015-.027c3.597-1.291 6.958-2.062 9.738-2.52l.013.013 8.697 9.691z" fill="#f46275"/></g></g><g><g><path d="m103.976 143.838.014.027 8.545 15.056 4.564-3.646-7.447-13.12c-1.784.428-3.685.969-5.676 1.683z" fill="#f43075"/></g></g><g><g><path d="m191.436 147.974v-11.591h26.84 7.641s-.954 11.591-12.092 11.591z" fill="#f8af23"/></g></g><g><g><path d="m218.276 136.383h-.284s-.954 11.591-12.092 11.591h7.925c11.138 0 12.092-11.591 12.092-11.591z" fill="#f8d323"/></g></g><g><g><path d="m213.805 147.974h-22.391l-3.379 8.365h22.405z" fill="#f46275"/></g></g><g><g><path d="m205.88 147.974-3.34 8.365h7.9l3.365-8.365z" fill="#f48875"/></g></g><g><g><path d="m202.516 156.339-24.746 61.522h7.925l24.745-61.522z" fill="#63e2e7"/></g></g><g><g><path d="m160.524 66.183c-1.702.851-3.526 1.489-5.45 1.858-9.026 2.399-27.963 4.62-51.292-8.594 0 0-.647 16.707-18.123 16.707l-.013-.021v.021 24.339c0 2.734.319 5.396.904 7.96 2.977 13.053 13.096 23.465 25.986 26.861 2.912.767 5.965 1.179 9.109 1.179h4.13c2.231 0 4.414-.211 6.535-.604 14.104-2.616 25.388-13.526 28.561-27.436.585-2.564.904-5.226.904-7.96v-.305-13.677-10.357-.604c.001-3.238-.439-6.377-1.251-9.367z" fill="#f8af23"/></g></g><g><g><path d="m93.642 74.683c-2.168.911-4.792 1.472-7.982 1.472l-.013-.021v.021 24.339c0 2.734.319 5.396.904 7.96 2.977 13.053 13.096 23.465 25.986 26.861 2.912.767 5.965 1.179 9.109 1.179h4.13c.663 0 1.32-.024 1.975-.061-2.486-.13-4.91-.505-7.241-1.118-12.891-3.396-23.01-13.808-25.986-26.861-.585-2.564-.904-5.226-.904-7.96v-24.34-.021-.583c-.001-.291.014-.578.022-.867z" fill="#f87023"/></g></g><g><g><path d="m105.565 146.638-1.589-2.8c-9.648 3.455-20.931 10.635-26.903 25.57l-17.817 48.452h7.973l17.817-48.452c4.688-11.722 12.646-18.654 20.519-22.77z" fill="#6377e7"/></g></g><g><g><path d="m132.716 158.921 8.545-15.056c-3.597-1.291-6.943-2.09-9.724-2.548l-.013.013-8.697 9.691z" fill="#f46275"/></g></g><g><g><path d="m141.261 143.866c-1.998-.717-3.9-1.278-5.69-1.717l-7.441 13.11 4.586 3.663z" fill="#f48875"/></g></g><g><g><g><path d="m126.585 168.912c0 2.301-1.866 4.167-4.165 4.167-2.301 0-4.167-1.866-4.167-4.167 0-2.3 1.866-4.166 4.167-4.166 2.299 0 4.165 1.866 4.165 4.166z" fill="#f8af23"/></g></g><g><g><path d="m126.585 186.767c0 2.302-1.866 4.166-4.165 4.166-2.301 0-4.167-1.864-4.167-4.166 0-2.303 1.866-4.167 4.167-4.167 2.299 0 4.165 1.864 4.165 4.167z" fill="#f8af23"/></g></g><g><g><path d="m126.585 204.621c0 2.301-1.866 4.167-4.165 4.167-2.301 0-4.167-1.866-4.167-4.167s1.866-4.165 4.167-4.165c2.299 0 4.165 1.864 4.165 4.165z" fill="#f8af23"/></g></g></g><g><g><path d="m103.976 143.838c.022-.009.046-.015.069-.022-.025.008-.047.014-.069.022z" fill="#63bce7"/></g></g><g><g><path d="m85.646 76.154h-.196-7.753-.051-.065c-4.22.324-7.559 3.743-7.767 7.995v16.305c.208 4.289 3.61 7.729 7.883 8h.685 8.169c-.585-2.564-.904-5.226-.904-7.96v-24.34z" fill="#f46275"/></g></g><g><g><path d="m77.787 100.454v-16.305c.208-4.251 3.547-7.671 7.767-7.995h-.104-7.753-.051-.065c-4.22.324-7.559 3.743-7.767 7.995v16.305c.208 4.289 3.61 7.729 7.883 8h.685 7.288c-4.273-.271-7.675-3.711-7.883-8z" fill="#f43075"/></g></g><g><g><path d="m169.776 76.175c-.057-.005-.112-.017-.17-.021h-.119-7.711v10.357 13.678.305c0 2.734-.319 5.396-.904 7.96h8.169.446c4.274-.271 7.676-3.711 7.885-8v-16.305c-.202-4.193-3.459-7.572-7.596-7.974z" fill="#f43075"/></g></g><g><g><path d="m169.776 76.175c-.057-.005-.112-.017-.17-.021h-.119-7.711v.019c.007 0 .015.002.021.002 4.137.402 7.393 3.78 7.596 7.974v16.305c-.209 4.289-3.61 7.729-7.885 8h7.532.446c4.274-.271 7.676-3.711 7.885-8v-16.305c-.201-4.193-3.458-7.572-7.595-7.974z" fill="#f46275"/></g></g><g><g><path d="m147.548 121.155c0 1.792-1.453 3.247-3.245 3.247h-4.526c-1.793 0-3.247-1.455-3.247-3.247 0-1.793 1.454-3.246 3.247-3.246h4.526c1.792-.001 3.245 1.453 3.245 3.246z" fill="#f46275"/></g></g><g><g><path d="m167.345 61.194-.101-.29c-.005.006-.009.012-.014.018-1.784 2.099-3.964 3.852-6.432 5.131l-.009.005h-.001c-.007.004-.047.022-.104.048-.004.003-.007.003-.011.005-.004.003-.006.003-.011.006-.046.023-.094.042-.14.065.812 2.99 1.252 6.129 1.252 9.367v.604h7.711.119c.058.004.113.016.17.021v-.624c0-3.862-.516-7.718-1.532-11.464-.243-.904-.532-1.834-.897-2.892z" fill="#f8af23"/></g></g><g><g><path d="m121.646 39.55h4.13.066v.001c1.779.003 3.526.144 5.238.399l.031-.101c.733-2.002 1.764-3.858 3.036-5.523.422-.553.874-1.08 1.348-1.589.022-.024.047-.047.07-.071-1.092-.25-2.192-.461-3.302-.627-2.098-.314-4.211-.477-6.296-.487l-4.322-.002c-24.262 0-44 19.738-44 44v.604h.051 7.753.196v-.021-.583c.001-19.8 16.202-36 36.001-36z" fill="#f8af23"/></g></g><g><g><path d="m160.675 66.112c.004-.002.007-.002.011-.005.057-.025.097-.044.104-.048h.001l.009-.005c2.468-1.279 4.647-3.032 6.432-5.131.005-.006.009-.012.014-.018 3.14-3.701 5.04-8.483 5.04-13.717 0-11.729-9.508-21.238-21.238-21.238-6.108 0-11.606 2.586-15.479 6.716-.023.024-.048.047-.07.071-.474.509-.926 1.036-1.348 1.589-1.273 1.665-2.303 3.521-3.036 5.523l-.031.101c-1.712-.256-3.459-.396-5.238-.399-.023 0-.044-.001-.066-.001h-4.13c-19.8 0-36 16.2-36 36v.583l.013.021c17.476 0 18.123-16.707 18.123-16.707 23.329 13.213 42.266 10.993 51.292 8.594 1.924-.369 3.748-1.007 5.45-1.858.046-.023.094-.042.14-.065.001-.003.003-.003.007-.006z" fill="#63bce7"/></g></g><g><g><path d="m93.642 74.683c.449-18.697 15.326-33.979 33.866-35.065-.554-.027-1.105-.065-1.665-.066-.023 0-.044-.001-.066-.001h-4.13c-19.8 0-36 16.2-36 36v.583l.013.021c3.19-.001 5.814-.562 7.982-1.472z" fill="#6377e7"/></g></g><g><g><g><path d="m126.52 113.079c-.829 0-1.5.671-1.5 1.5s.671 1.5 1.5 1.5c3.222 0 5.843-2.62 5.843-5.841 0-2.702-1.847-4.974-4.343-5.639v-7.884c0-.829-.671-1.5-1.5-1.5s-1.5.671-1.5 1.5v9.193c0 .829.671 1.5 1.5 1.5.02 0 .038-.005.058-.006 1.54.032 2.785 1.288 2.785 2.835-.001 1.568-1.276 2.842-2.843 2.842z" fill="#231f20"/></g></g><g><g><path d="m114.46 116.427c0 2.379.926 4.618 2.609 6.303 1.739 1.737 4.022 2.606 6.305 2.606s4.566-.869 6.304-2.607c.586-.585.586-1.535 0-2.121s-1.535-.586-2.121 0c-2.306 2.306-6.06 2.305-8.366 0-1.117-1.118-1.731-2.603-1.731-4.182 0-.829-.671-1.5-1.5-1.5s-1.5.673-1.5 1.501z" fill="#231f20"/></g></g><g><g><path d="m113.815 94.514v-3.65c0-1.434-1.163-2.599-2.6-2.599-1.435 0-2.598 1.165-2.598 2.599v3.65c0 1.436 1.163 2.6 2.598 2.6 1.437 0 2.6-1.164 2.6-2.6z" fill="#231f20"/></g></g><g><g><path d="m141.587 88.265c-1.435 0-2.598 1.165-2.598 2.599v3.65c0 1.436 1.163 2.6 2.598 2.6 1.436 0 2.601-1.164 2.601-2.6v-3.65c-.001-1.434-1.166-2.599-2.601-2.599z" fill="#231f20"/></g></g><g><g><path d="m114.102 83.478c.666.488 1.606.344 2.096-.326.489-.668.343-1.607-.326-2.096-2.382-1.742-5.219-2.424-7.989-1.918-2.561.467-4.795 1.907-6.13 3.952-.453.694-.258 1.623.436 2.076.253.166.538.244.819.244.49 0 .97-.239 1.257-.68.887-1.358 2.402-2.321 4.157-2.641 1.952-.357 3.968.137 5.68 1.389z" fill="#231f20"/></g></g><g><g><path d="m131.107 85.165c.253.166.538.244.819.244.489 0 .969-.239 1.257-.68.887-1.358 2.402-2.321 4.157-2.641 1.947-.357 3.968.137 5.68 1.389.668.488 1.606.344 2.097-.326.489-.668.343-1.607-.325-2.096-2.383-1.742-5.216-2.425-7.99-1.918-2.561.467-4.795 1.907-6.13 3.952-.453.694-.258 1.623.435 2.076z" fill="#231f20"/></g></g><g><g><path d="m191.217 93.822c3.973 3.914 6.161 9.138 6.161 14.71 0 .829.672 1.5 1.5 1.5h17.237c.828 0 1.5-.671 1.5-1.5 0-5.507 2.144-10.689 5.997-14.554 4.796-4.465 7.547-10.778 7.547-17.321 0-13.049-10.615-23.665-23.664-23.665-13.047 0-23.662 10.616-23.662 23.665 0 6.563 2.63 12.666 7.384 17.165zm16.278-37.83c11.395 0 20.664 9.27 20.664 20.665 0 5.713-2.402 11.226-6.632 15.164-4.102 4.113-6.508 9.468-6.865 15.211h-14.331c-.36-5.814-2.819-11.219-7.03-15.368-4.171-3.947-6.468-9.277-6.468-15.007 0-11.395 9.269-20.665 20.662-20.665z" fill="#231f20"/></g></g><g><g><path d="m122.42 174.579c3.124 0 5.665-2.542 5.665-5.667 0-3.124-2.542-5.666-5.665-5.666-3.125 0-5.667 2.542-5.667 5.666 0 3.125 2.542 5.667 5.667 5.667zm0-8.333c1.47 0 2.665 1.196 2.665 2.666 0 1.471-1.195 2.667-2.665 2.667-1.471 0-2.667-1.196-2.667-2.667s1.196-2.666 2.667-2.666z" fill="#231f20"/></g></g><g><g><path d="m122.42 192.433c3.124 0 5.665-2.542 5.665-5.666 0-3.125-2.542-5.667-5.665-5.667-3.125 0-5.667 2.542-5.667 5.667 0 3.124 2.542 5.666 5.667 5.666zm0-8.333c1.47 0 2.665 1.196 2.665 2.667 0 1.47-1.195 2.666-2.665 2.666-1.471 0-2.667-1.196-2.667-2.666 0-1.471 1.196-2.667 2.667-2.667z" fill="#231f20"/></g></g><g><g><path d="m122.42 210.288c3.124 0 5.665-2.542 5.665-5.667 0-3.124-2.542-5.665-5.665-5.665-3.125 0-5.667 2.542-5.667 5.665 0 3.125 2.542 5.667 5.667 5.667zm0-8.332c1.47 0 2.665 1.195 2.665 2.665 0 1.471-1.195 2.667-2.665 2.667-1.471 0-2.667-1.196-2.667-2.667 0-1.47 1.196-2.665 2.667-2.665z" fill="#231f20"/></g></g><g><g><path d="m216.655 122.786h-18.35c-.828 0-1.5.671-1.5 1.5s.672 1.5 1.5 1.5h3.546c.662 2.492 2.927 4.331 5.628 4.331s4.966-1.838 5.629-4.331h3.547c.828 0 1.5-.671 1.5-1.5s-.672-1.5-1.5-1.5z" fill="#231f20"/></g></g><g><g><path d="m216.655 114.88h-18.35c-.828 0-1.5.671-1.5 1.5s.672 1.5 1.5 1.5h18.35c.828 0 1.5-.671 1.5-1.5s-.672-1.5-1.5-1.5z" fill="#231f20"/></g></g><g><g><path d="m205.979 75.191v8.879c0 .524.273 1.01.721 1.282.239.145.509.218.779.218.236 0 .474-.056.69-.168l14.508-7.527c.735-.381 1.022-1.287.641-2.022-.382-.736-1.288-1.021-2.021-.641l-12.317 6.39v-8.887c0-.524-.274-1.011-.723-1.283-.448-.272-1.008-.29-1.472-.047l-14.492 7.568c-.734.383-1.019 1.29-.636 2.024.385.735 1.292 1.019 2.024.635z" fill="#231f20"/></g></g><g><g><path d="m44.076 219.361h15.18 18.599.003.003 89.174.003.003 18.655 27.24c.828 0 1.5-.671 1.5-1.5s-.672-1.5-1.5-1.5h-25.02l23.916-59.46c0-.001.001-.001.001-.002l3.008-7.48c9.101-.568 12.216-8.587 12.572-12.913.034-.418-.107-.831-.392-1.139-.284-.309-.685-.484-1.104-.484h-34.48c-.828 0-1.5.671-1.5 1.5v11.244l-14.403 35.656-6.052-14.432c-6.344-15.857-18.572-23.107-27.713-26.397h-.001c-2.854-1.025-5.841-1.827-8.725-2.377v-2.815c9.385-1.862 17.482-7.174 22.936-14.608h7.399c3.584 0 6.5-2.916 6.5-6.5v-6.236c4.906-.458 8.75-4.441 8.993-9.465l-.002-16.377c-.213-4.423-3.394-8.144-7.615-9.16-.053-3.781-.568-7.555-1.564-11.224-.217-.798-.472-1.617-.77-2.505 3.13-3.991 4.863-8.92 4.863-14 0-12.538-10.2-22.738-22.738-22.738-5.969 0-11.736 2.389-15.976 6.579-.866-.182-1.732-.347-2.583-.474-2.167-.324-4.357-.493-6.517-.503l-4.323-.002c-24.856 0-45.109 20.038-45.482 44.807-4.34.925-7.626 4.684-7.85 9.292l.002 16.377c.245 5.053 4.237 9.104 9.381 9.428h7.702c3.407 12.935 13.777 23.392 26.757 26.812.022.006.044.009.066.015v3.292c-2.99.56-5.931 1.341-8.754 2.354-.001 0-.001.001-.001.001-9.17 3.285-21.433 10.535-27.802 26.464l-17.456 47.47h-14.133c-.829 0-1.5.671-1.5 1.5s.672 1.5 1.5 1.5zm148.861-81.478h31.199c-.695 2.891-2.994 8.591-10.311 8.591h-.021-20.868v-8.591zm-.511 11.591h19.159l-2.158 5.365h-19.168zm-53.364-4.773-5.135 9.049-1.648 2.903-7.274-5.811 7.092-7.904c2.285.416 4.653 1.016 6.965 1.763zm-16.437 4.3-7.402-8.245v-3.337c2.12.371 4.269.574 6.425.574h4.13c1.417 0 2.844-.093 4.266-.257v2.999zm44.254-32.846c0 1.93-1.57 3.5-3.5 3.5h-5.408c1.776-2.984 3.146-6.24 4.053-9.701h4.855zm2.638-38.501c.038.005.098.012.114.014 3.396.33 6.079 3.146 6.241 6.48l.002 16.231c-.172 3.526-2.958 6.354-6.387 6.574h-6.786c.379-2.145.576-4.31.576-6.46v-22.839zm-7.274-10.719c1.549-.905 3.042-1.995 4.345-3.195.073.249.143.494.209.739.903 3.329 1.396 6.748 1.47 10.176h-5.019c-.063-2.597-.401-5.183-1.005-7.72zm-26.902-31.699c.372-.488.782-.971 1.254-1.478 3.726-4.009 8.993-6.308 14.451-6.308 10.884 0 19.738 8.854 19.738 19.738 0 4.664-1.665 9.192-4.688 12.752-.001.002-.003.003-.005.005-.009.011-.019.022-.027.035-1.599 1.872-3.864 3.643-6.221 4.867-1.625.811-3.324 1.39-5.05 1.721-.035.007-.069.015-.104.023-8.958 2.381-27.391 4.451-50.167-8.449-.456-.258-1.012-.26-1.469-.005s-.749.729-.769 1.252c-.023.603-.729 14.316-15.114 15.216.503-18.587 15.769-33.556 34.476-33.556l4.194.001c1.648.003 3.337.131 5.019.383.744.11 1.438-.334 1.655-1.042l.006-.026c.673-1.835 1.622-3.56 2.821-5.129zm-57.549 71.721c-3.523-.223-6.308-3.05-6.478-6.503l-.002-16.231c.17-3.48 2.915-6.306 6.385-6.568h6.45v22.839c0 2.15.198 4.316.577 6.461zm6.377-32.303h-5.013c.478-23.023 19.355-41.604 42.49-41.604l4.316.002c2.009.009 4.056.167 6.081.47.243.036.494.096.739.137-1.067 1.434-1.962 2.978-2.67 4.649-1.435-.168-2.877-.255-4.336-.258h-4.13c-20.377 0-36.998 16.34-37.477 36.604zm3.845 33.467c-.575-2.521-.867-5.087-.867-7.627v-22.879c13.372-.717 16.905-11.083 17.821-15.801 22.778 12.221 41.277 10.115 50.441 7.69 1.386-.27 2.754-.676 4.086-1.213.519 2.389.781 4.823.781 7.259v24.944c0 2.54-.292 5.106-.867 7.627-.957 4.197-2.662 8.089-4.964 11.534h-5.664c-.632-1.88-2.39-3.247-4.479-3.247h-4.526c-2.617 0-4.747 2.129-4.747 4.747s2.13 4.747 4.747 4.747h4.526c2.089 0 3.847-1.367 4.479-3.247h3.386c-5.048 6.013-12.085 10.268-20.129 11.76-2.073.384-4.18.579-6.262.579h-4.13c-2.945 0-5.881-.38-8.728-1.129-12.3-3.241-22.077-13.346-24.904-25.744zm58.034 13.034c0 .963-.783 1.747-1.745 1.747h-4.526c-.963 0-1.747-.784-1.747-1.747s.784-1.747 1.747-1.747h4.526c.962 0 1.745.784 1.745 1.747zm-32.896 21.782 7.094 7.905-7.272 5.811-6.798-11.978c2.269-.729 4.606-1.311 6.976-1.738zm-34.686 27.029c4.617-11.546 12.969-19.708 24.835-24.276l7.662 13.499c.002.003.005.006.007.009l.263.464c.217.382.59.65 1.021.733.431.082.877-.027 1.22-.301l9.153-7.312 9.153 7.312c.344.274.79.383 1.22.301.432-.083.805-.351 1.021-.733l7.914-13.943c11.825 4.576 20.153 12.729 24.771 24.271l7.47 17.815c.234.558.779.92 1.384.92h.01c.608-.004 1.153-.375 1.381-.938l12.097-29.947h19.174l-23.539 58.521h-16.622l-11.542-29.31c-.304-.771-1.177-1.149-1.945-.846-.771.303-1.149 1.174-.846 1.945l11.109 28.21h-84.776l11.109-28.21c.304-.771-.075-1.642-.846-1.945-.771-.304-1.642.075-1.945.846l-11.542 29.31h-15.431z" fill="#231f20"/></g></g><g><g><path d="m35.768 217.861c0-.829-.671-1.5-1.5-1.5h-8.344c-.829 0-1.5.671-1.5 1.5s.671 1.5 1.5 1.5h8.344c.828 0 1.5-.672 1.5-1.5z" fill="#231f20"/></g></g><g><g><path d="m230.076 216.361h-8.346c-.828 0-1.5.671-1.5 1.5s.672 1.5 1.5 1.5h8.346c.828 0 1.5-.671 1.5-1.5s-.672-1.5-1.5-1.5z" fill="#231f20"/></g></g><g><g><path d="m202.869 228.55h-148.726c-.829 0-1.5.671-1.5 1.5s.671 1.5 1.5 1.5h148.727c.828 0 1.5-.671 1.5-1.5s-.673-1.5-1.501-1.5z" fill="#231f20"/></g></g><g><g><path d="m45.133 228.55h-8.344c-.829 0-1.5.671-1.5 1.5s.671 1.5 1.5 1.5h8.344c.829 0 1.5-.671 1.5-1.5s-.672-1.5-1.5-1.5z" fill="#231f20"/></g></g><g><g><path d="m220.428 228.55h-8.346c-.828 0-1.5.671-1.5 1.5s.672 1.5 1.5 1.5h8.346c.828 0 1.5-.671 1.5-1.5s-.672-1.5-1.5-1.5z" fill="#231f20"/></g></g></g></g></svg>