<svg height="464pt" viewBox="-16 0 464 464" width="464pt" xmlns="http://www.w3.org/2000/svg"><path d="m64 136v24c0 8.835938 7.164062 16 16 16s16-7.164062 16-16v-24zm0 0" fill="#ff9811"/><path d="m88 432v32h-80v-224h80zm0 0" fill="#c0ab91"/><path d="m296 304c8.824219.027344 15.972656 7.175781 16 16v16c-.027344 8.824219-7.175781 15.972656-16 16 8.824219.027344 15.972656 7.175781 16 16v16c-.027344 8.824219-7.175781 15.972656-16 16h-8c8.824219.027344 15.972656 7.175781 16 16v16c-.027344 8.824219-7.175781 15.972656-16 16h-152l-48-16v-176h32l32-32 8-32c.027344-8.824219 7.175781-15.972656 16-16h16c8.824219.027344 15.972656 7.175781 16 16v64h96c8.824219.027344 15.972656 7.175781 16 16v16c-.027344 8.824219-7.175781 15.972656-16 16zm0 0" fill="#ffdaaa"/><path d="m96 149.199219c-10.339844 3.734375-21.660156 3.734375-32 0-22.039062-7.792969-35.261719-30.328125-31.308594-53.371094 3.953125-23.039063 23.929688-39.882813 47.308594-39.882813s43.355469 16.84375 47.308594 39.882813c3.953125 23.042969-9.269532 45.578125-31.308594 53.371094zm0 0" fill="#ffda44"/><path d="m264 8v24h-32v-32h32zm0 0" fill="#898890"/><path d="m264 32v224h-32v-224zm0 0" fill="#acabb1"/><g fill="#ffda44"><path d="m432 8-48 48 48 48h-168v-96zm0 0"/><path d="m72 24h16v16h-16zm0 0"/><path d="m33.074219 38.722656 13.855469-8 8 13.855469-13.855469 8zm0 0"/><path d="m6.722656 70.929688 8-13.855469 13.855469 8-8 13.855469zm0 0"/><path d="m0 96h16v16h-16zm0 0"/><path d="m6.722656 137.070312 13.855469-8 8 13.859376-13.855469 7.996093zm0 0"/><path d="m131.421875 142.929688 8-13.855469 13.855469 8-8 13.855469zm0 0"/><path d="m144 96h16v16h-16zm0 0"/><path d="m131.425781 65.066406 13.859375-8 7.996094 13.859375-13.855469 8zm0 0"/><path d="m105.074219 44.578125 8-13.859375 13.859375 8-8 13.859375zm0 0"/></g><path d="m40 256c8.835938 0 16 7.164062 16 16v48c0 8.835938-7.164062 16-16 16s-16-7.164062-16-16v-48c0-8.835938 7.164062-16 16-16zm0 0" fill="#d2bb9e"/><path d="m40 352c8.835938 0 16 7.164062 16 16v8c0 8.835938-7.164062 16-16 16s-16-7.164062-16-16v-8c0-8.835938 7.164062-16 16-16zm0 0" fill="#d2bb9e"/><path d="m75.3125 68.6875c-3.125-3.125-10.722656-.59375-16.972656 5.65625-6.246094 6.246094-8.78125 13.847656-5.65625 16.96875 3.125 3.125 10.722656.59375 16.972656-5.65625 6.246094-6.246094 8.78125-13.847656 5.65625-16.96875zm0 0" fill="#fff"/></svg>