<svg id="Layer_1" enable-background="new 0 0 256 256" height="512" viewBox="0 0 256 256" width="512" xmlns="http://www.w3.org/2000/svg"><g><g><g><path d="m53.66 39.013h146.92v99.007h-146.92z" fill="#63bce7"/></g></g><g><g><path d="m192.182 39.013h8.399v99.007h-8.399z" fill="#63e2e7"/></g></g><g><g><g><path d="m180.162 225.943c-2.251 0-4.425-1.219-5.542-3.351l-33.696-64.263c-1.604-3.058-.424-6.837 2.634-8.441 3.055-1.604 6.837-.425 8.441 2.634l33.696 64.263c1.604 3.058.424 6.837-2.634 8.441-.927.486-1.92.717-2.899.717z" fill="#9e9e9e"/></g></g></g><g><g><path d="m53.66 39.013h8.399v99.007h-8.399z" fill="#6377e7"/></g></g><g><g><g><path d="m74.079 225.943c-.979 0-1.971-.231-2.898-.716-3.058-1.604-4.238-5.383-2.634-8.441l33.696-64.263c1.604-3.059 5.384-4.237 8.441-2.634 3.058 1.604 4.238 5.383 2.634 8.441l-33.696 64.263c-1.118 2.131-3.293 3.35-5.543 3.35z" fill="#9e9e9e"/></g></g></g><g><g><path d="m76.945 216.785 33.696-64.263c.351-.669.81-1.241 1.338-1.721-.385-.349-.814-.661-1.296-.914-3.057-1.602-6.837-.424-8.441 2.634l-33.696 64.263c-1.604 3.058-.424 6.837 2.634 8.441.927.486 1.919.716 2.898.716 1.544 0 3.044-.586 4.199-1.635-2.054-1.866-2.682-4.947-1.332-7.521z" fill="#707070"/></g></g><g><g><path d="m177.296 216.785-33.696-64.263c-.351-.669-.81-1.241-1.338-1.721.385-.349.814-.661 1.296-.914 3.057-1.602 6.837-.424 8.441 2.634l33.696 64.263c1.604 3.058.424 6.837-2.634 8.441-.927.486-1.919.716-2.898.716-1.544 0-3.044-.586-4.199-1.635 2.054-1.866 2.682-4.947 1.332-7.521z" fill="#cecece"/></g></g><g><g><g><path d="m127.12 225.941c-3.453 0-6.253-2.8-6.253-6.253v-64.263c0-3.453 2.8-6.253 6.253-6.253s6.253 2.8 6.253 6.253v64.263c0 3.454-2.8 6.253-6.253 6.253z" fill="#9e9e9e"/></g></g></g><g><g><path d="m129.266 219.689v-64.263c0-1.834.795-3.479 2.053-4.623-1.11-1.009-2.581-1.63-4.199-1.63-3.453 0-6.253 2.8-6.253 6.253v64.263c0 3.453 2.8 6.253 6.253 6.253 1.619 0 3.089-.62 4.199-1.63-1.258-1.144-2.053-2.789-2.053-4.623z" fill="#707070"/></g></g><g><g><path d="m154.896 155.425h-55.551c-4.612 0-8.351-3.739-8.351-8.351v-.703c0-4.612 3.739-8.351 8.351-8.351h55.551c4.612 0 8.351 3.739 8.351 8.351v.703c0 4.613-3.739 8.351-8.351 8.351z" fill="#9e9e9e"/></g></g><g><g><path d="m107.744 146.723h55.503v-.352c0-4.612-3.739-8.351-8.351-8.351h-55.551c-4.612 0-8.351 3.739-8.351 8.351v.703c0 4.612 3.739 8.351 8.351 8.351h.048v-.352c0-4.611 3.738-8.35 8.351-8.35z" fill="#707070"/></g></g><g><g><path d="m164.397 23.743h32.207v15.27h-32.207z" fill="#f8af23"/></g></g><g><g><path d="m188.688 23.743h7.916v15.27h-7.916z" fill="#f8d323"/></g></g><g><g><path d="m61.811 26.289h22.664v12.724h-22.664z" fill="#f8af23"/></g></g><g><g><path d="m61.811 26.289h8.399v12.724h-8.399z" fill="#f87023"/></g></g><g><g><path d="m53.66 39.013h146.92v26.044h-146.92z" fill="#f8af23"/></g></g><g><g><path d="m53.66 39.013h8.399v26.044h-8.399z" fill="#f87023"/></g></g><g><g><path d="m192.182 39.013h8.399v26.044h-8.399z" fill="#f8d323"/></g></g><g><g><circle cx="127.12" cy="88.517" fill="#f46275" r="33.54"/></g></g><g><g><circle cx="127.12" cy="88.517" fill="#f8af23" r="15.618"/></g></g><g><g><path d="m101.979 88.516c0-17.101 12.801-31.202 29.341-33.269-1.377-.172-2.776-.271-4.199-.271-18.524 0-33.54 15.017-33.54 33.54s15.017 33.54 33.54 33.54c1.423 0 2.823-.099 4.199-.271-16.541-2.067-29.341-16.168-29.341-33.269z" fill="#f43075"/></g></g><g><g><path d="m119.901 88.516c0-7.169 4.836-13.194 11.419-15.03-1.338-.373-2.742-.588-4.199-.588-8.626 0-15.618 6.992-15.618 15.618s6.992 15.618 15.618 15.618c1.457 0 2.861-.215 4.199-.588-6.583-1.835-11.419-7.861-11.419-15.03z" fill="#f87023"/></g></g><g><g><path d="m179.009 79.661h62.43v42.396h-62.43z" fill="#9e9e9e"/></g></g><g><g><path d="m233.04 79.661h8.399v42.396h-8.399z" fill="#cecece"/></g></g><g><g><g><g><path d="m226.007 115.193h-31.567c.548-8.238 7.405-14.749 15.783-14.749s15.236 6.511 15.784 14.749z" fill="#f46275"/></g></g><g><g><circle cx="210.224" cy="93.484" fill="#f46275" r="6.96"/></g></g></g></g><g><g><path d="m14.958 109.085h62.43v42.396h-62.43z" fill="#9e9e9e"/></g></g><g><g><path d="m14.958 109.085h8.399v42.396h-8.399z" fill="#707070"/></g></g><g><g><path d="m14.958 151.481 31.215-21.198 31.215 21.198z" fill="#63bce7"/></g></g><g><g><path d="m66.673 123.283 10.715 7.277v20.921l-26.119-17.737z" fill="#f46275"/></g></g><g><g><circle cx="31.803" cy="122.083" fill="#f8af23" r="7.25"/></g></g><g><g><g><path d="m207.172 241.935h-158.344c-.828 0-1.5.671-1.5 1.5s.672 1.5 1.5 1.5h158.344c.828 0 1.5-.671 1.5-1.5s-.672-1.5-1.5-1.5z" fill="#3f3679"/></g></g><g><g><path d="m232.003 241.935h-12.75c-.828 0-1.5.671-1.5 1.5s.672 1.5 1.5 1.5h12.75c.828 0 1.5-.671 1.5-1.5s-.672-1.5-1.5-1.5z" fill="#3f3679"/></g></g><g><g><path d="m36.747 241.935h-12.75c-.828 0-1.5.671-1.5 1.5s.672 1.5 1.5 1.5h12.75c.828 0 1.5-.671 1.5-1.5s-.672-1.5-1.5-1.5z" fill="#3f3679"/></g></g><g><g><path d="m127.12 105.635c9.439 0 17.118-7.679 17.118-17.118s-7.679-17.118-17.118-17.118-17.118 7.679-17.118 17.118 7.679 17.118 17.118 17.118zm0-31.237c7.785 0 14.118 6.333 14.118 14.118s-6.333 14.118-14.118 14.118-14.118-6.333-14.118-14.118 6.333-14.118 14.118-14.118z" fill="#3f3679"/></g></g><g><g><path d="m119.312 90.017c.828 0 1.5-.671 1.5-1.5 0-3.479 2.83-6.309 6.309-6.309.828 0 1.5-.671 1.5-1.5s-.672-1.5-1.5-1.5c-5.133 0-9.309 4.176-9.309 9.309 0 .828.671 1.5 1.5 1.5z" fill="#3f3679"/></g></g><g><g><path d="m61.812 53.535h7.088c.828 0 1.5-.671 1.5-1.5s-.672-1.5-1.5-1.5h-7.088c-.828 0-1.5.671-1.5 1.5s.671 1.5 1.5 1.5z" fill="#3f3679"/></g></g><g><g><path d="m77.388 53.535h7.088c.828 0 1.5-.671 1.5-1.5s-.672-1.5-1.5-1.5h-7.088c-.828 0-1.5.671-1.5 1.5s.672 1.5 1.5 1.5z" fill="#3f3679"/></g></g><g><g><path d="m164.397 53.535h24.291c.828 0 1.5-.671 1.5-1.5s-.672-1.5-1.5-1.5h-24.291c-.828 0-1.5.671-1.5 1.5s.672 1.5 1.5 1.5z" fill="#3f3679"/></g></g><g><g><path d="m77.492 31.151h-3.352c-.828 0-1.5.671-1.5 1.5s.672 1.5 1.5 1.5h3.353c.828 0 1.5-.671 1.5-1.5s-.673-1.5-1.501-1.5z" fill="#3f3679"/></g></g><g><g><path d="m137.194 148.223h7.072c.828 0 1.5-.671 1.5-1.5s-.672-1.5-1.5-1.5h-7.072c-.828 0-1.5.671-1.5 1.5s.672 1.5 1.5 1.5z" fill="#3f3679"/></g></g><g><g><path d="m86.303 196.301c-.73-.382-1.641-.102-2.024.632l-5.522 10.532c-.385.734-.103 1.641.632 2.025.222.116.46.172.695.172.54 0 1.062-.292 1.329-.804l5.522-10.532c.384-.734.102-1.64-.632-2.025z" fill="#3f3679"/></g></g><g><g><path d="m105.834 159.051c-.729-.383-1.64-.102-2.024.632l-11.667 22.251c-.385.734-.103 1.641.632 2.025.222.116.46.172.695.172.54 0 1.062-.292 1.329-.804l11.667-22.251c.385-.734.102-1.64-.632-2.025z" fill="#3f3679"/></g></g><g><g><path d="m172.594 208.858c.268.511.789.804 1.329.804.235 0 .474-.056.695-.172.734-.385 1.017-1.292.632-2.025l-5.522-10.532c-.384-.734-1.294-1.014-2.024-.632-.734.385-1.017 1.292-.632 2.025z" fill="#3f3679"/></g></g><g><g><path d="m150.196 159.683c-.384-.734-1.294-1.015-2.024-.632-.734.385-1.017 1.292-.632 2.025l11.667 22.251c.268.511.789.804 1.329.804.235 0 .474-.056.695-.172.734-.385 1.017-1.292.632-2.025z" fill="#3f3679"/></g></g><g><g><path d="m127.12 194.609c-.828 0-1.5.671-1.5 1.5v6.786c0 .829.672 1.5 1.5 1.5s1.5-.671 1.5-1.5v-6.786c0-.828-.672-1.5-1.5-1.5z" fill="#3f3679"/></g></g><g><g><path d="m62.43 225.941c0-.829-.672-1.5-1.5-1.5h-14.125c-.828 0-1.5.671-1.5 1.5s.672 1.5 1.5 1.5h14.125c.828 0 1.5-.671 1.5-1.5z" fill="#3f3679"/></g></g><g><g><path d="m38.805 224.443h-8.625c-.828 0-1.5.671-1.5 1.5s.672 1.5 1.5 1.5h8.625c.828 0 1.5-.671 1.5-1.5s-.672-1.5-1.5-1.5z" fill="#3f3679"/></g></g><g><g><path d="m207.437 224.443h-14.125c-.828 0-1.5.671-1.5 1.5s.672 1.5 1.5 1.5h14.125c.828 0 1.5-.671 1.5-1.5s-.672-1.5-1.5-1.5z" fill="#3f3679"/></g></g><g><g><path d="m225.562 225.941c0-.829-.672-1.5-1.5-1.5h-8.625c-.828 0-1.5.671-1.5 1.5s.672 1.5 1.5 1.5h8.625c.828 0 1.5-.671 1.5-1.5z" fill="#3f3679"/></g></g><g><g><path d="m107.37 227.443c.828 0 1.5-.671 1.5-1.5s-.672-1.5-1.5-1.5h-12.25c-.828 0-1.5.671-1.5 1.5s.672 1.5 1.5 1.5z" fill="#3f3679"/></g></g><g><g><path d="m159.12 227.443c.828 0 1.5-.671 1.5-1.5s-.672-1.5-1.5-1.5h-12.25c-.828 0-1.5.671-1.5 1.5s.672 1.5 1.5 1.5z" fill="#3f3679"/></g></g><g><g><path d="m241.438 78.161h-39.358v-39.148c0-.829-.672-1.5-1.5-1.5h-2.476v-13.77c0-.829-.672-1.5-1.5-1.5h-32.207c-.828 0-1.5.671-1.5 1.5v13.771h-76.921v-11.225c0-.829-.672-1.5-1.5-1.5h-22.664c-.828 0-1.5.671-1.5 1.5v11.224h-6.652c-.828 0-1.5.671-1.5 1.5v68.572h-37.202c-.828 0-1.5.671-1.5 1.5v42.396c0 .829.672 1.5 1.5 1.5h62.43c.828 0 1.5-.671 1.5-1.5v-11.961h13.393c-1.721 1.775-2.787 4.189-2.787 6.851v.703c0 5.069 3.849 9.253 8.777 9.79l-31.053 59.224c-.962 1.834-1.152 3.933-.535 5.91.616 1.977 1.966 3.595 3.801 4.557 1.107.581 2.351.888 3.595.888 2.895 0 5.527-1.592 6.87-4.154l24.579-46.877h13.84v43.277c0 4.275 3.478 7.753 7.752 7.753 4.275 0 7.753-3.478 7.753-7.753v-43.277h13.839l24.579 46.877c1.344 2.562 3.976 4.154 6.871 4.154 1.245 0 2.488-.307 3.596-.888 3.785-1.985 5.25-6.681 3.265-10.466l-31.054-59.224c4.929-.537 8.778-4.721 8.778-9.79v-.703c0-2.662-1.066-5.076-2.787-6.851h38.62c.828 0 1.5-.671 1.5-1.5v-14.463h39.358c.828 0 1.5-.671 1.5-1.5v-42.397c0-.829-.671-1.5-1.5-1.5zm-46.334-40.648h-4.916v-12.27h4.916zm-13.103 0v-12.27h5.188v12.271h-5.188zm-8.188 0v-12.27h5.188v12.271h-5.188zm-7.916-12.27h4.916v12.271h-4.916zm-102.585 8.908h6.349c.828 0 1.5-.671 1.5-1.5s-.672-1.5-1.5-1.5h-6.349v-3.362h19.664v9.724h-19.664zm-1.5 6.362h22.664 79.922 32.207 2.476v23.044h-47.397c-6.329-6.229-15.003-10.081-24.563-10.081-9.574 0-18.261 3.864-24.592 10.109-.09-.017-.183-.028-.278-.028h-47.091v-23.044zm65.308 15.963c17.667 0 32.041 14.374 32.041 32.041s-14.374 32.041-32.041 32.041-32.04-14.374-32.04-32.041 14.373-32.041 32.04-32.041zm-51.232 54.109v17.142l-8.372-5.685c-.51-.346-1.178-.346-1.686 0l-14.561 9.889-4.254-2.889c-.51-.346-1.176-.346-1.686 0l-28.871 19.608v-38.065zm-3.379 39.396h-52.672l26.336-17.885zm-18.57-16.237 12.734-8.648 9.215 6.258v17.296zm24.354 88.152c-.824 1.571-2.438 2.547-4.214 2.547-.771 0-1.513-.183-2.202-.545-1.124-.589-1.952-1.582-2.33-2.793s-.262-2.499.328-3.623l31.751-60.557h10.656c-.081.241-.174.478-.294.707zm28.809-48.484 7.543-14.386c.349-.666.593-1.372.737-2.101h3.987v16.486h-12.267zm24.771 46.276c0 2.621-2.132 4.753-4.753 4.753-2.62 0-4.752-2.132-4.752-4.753v-62.763h3.252v30.632c0 .829.672 1.5 1.5 1.5s1.5-.671 1.5-1.5v-30.632h3.253zm3-46.276v-16.486h3.984c.144.729.389 1.433.739 2.101l7.543 14.386h-12.266zm47.49 50.486c-.679.356-1.439.544-2.201.544-1.775 0-3.39-.976-4.214-2.547l-33.696-64.263c-.12-.228-.206-.467-.287-.707h10.649l31.752 60.557c1.217 2.32.319 5.199-2.003 6.416zm-20.616-77.527v.703c0 3.778-3.073 6.851-6.852 6.851h-55.55c-3.385 0-6.198-2.471-6.746-5.703h34.522c.828 0 1.5-.671 1.5-1.5s-.672-1.5-1.5-1.5h-34.523c.549-3.232 3.361-5.703 6.746-5.703h55.551c3.779.001 6.852 3.074 6.852 6.852zm37.333-9.851h-44.185-55.55-20.457v-5.954c0-.001 0-.003 0-.004v-21.477c0-.829-.672-1.5-1.5-1.5h-22.228v-41.028h44.682c-4.85 6.013-7.762 13.651-7.762 21.959 0 19.321 15.719 35.041 35.04 35.041s35.041-15.719 35.041-35.041c0-8.309-2.913-15.947-7.763-21.959h44.682v11.604h-20.071c-.828 0-1.5.671-1.5 1.5v42.396c0 .829.672 1.5 1.5 1.5h20.071zm40.858-15.963h-59.43v-39.396h59.43z" fill="#3f3679"/></g></g><g><g><path d="m194.44 116.693h31.566c.415 0 .812-.172 1.096-.475.283-.303.429-.71.401-1.125-.475-7.132-5.29-13.03-11.751-15.221 1.791-1.552 2.93-3.838 2.93-6.388 0-4.665-3.795-8.46-8.46-8.46s-8.46 3.795-8.46 8.46c0 2.551 1.139 4.836 2.93 6.388-6.461 2.191-11.276 8.089-11.751 15.221-.027.414.118.821.401 1.125.287.303.683.475 1.098.475zm10.324-23.209c0-3.011 2.449-5.46 5.46-5.46s5.46 2.449 5.46 5.46-2.449 5.46-5.46 5.46-5.46-2.449-5.46-5.46zm5.46 8.46c6.969 0 12.873 5.045 14.089 11.749h-28.178c1.216-6.704 7.12-11.749 14.089-11.749z" fill="#3f3679"/></g></g><g><g><path d="m31.803 130.833c4.825 0 8.75-3.925 8.75-8.75s-3.925-8.75-8.75-8.75-8.75 3.925-8.75 8.75 3.925 8.75 8.75 8.75zm0-14.5c3.171 0 5.75 2.58 5.75 5.75s-2.579 5.75-5.75 5.75-5.75-2.58-5.75-5.75 2.579-5.75 5.75-5.75z" fill="#3f3679"/></g></g></g></g></svg>