<svg height="511pt" viewBox="-33 1 511 511.99998" width="511pt" xmlns="http://www.w3.org/2000/svg"><path d="m61.148438 8.347656h376.597656v442.257813h-376.597656zm0 0" fill="#e1eaf8"/><path d="m409.929688 61.394531v389.210938h-348.78125v-413.695313h324.296874c13.523438 0 24.484376 10.960938 24.484376 24.484375zm0 0" fill="#e1eaf8"/><path d="m282.296875 503.652344h-273.449219v-442.253906h376.59375v442.253906zm0 0" fill="#fff"/><path d="m46.511719 100.785156h299.84375v300.234375h-299.84375zm0 0" fill="#ffc843"/><path d="m346.355469 272.441406v128.578125h-299.84375v-111.394531l80.90625-80.90625c4.597656-4.585938 10.828125-7.167969 17.320312-7.167969 6.5 0 12.722657 2.582031 17.316407 7.167969l61.6875 61.695312 42.972656-42.976562c4.597656-4.582031 10.832031-7.167969 17.320312-7.167969 6.488282 0 12.722656 2.585938 17.316406 7.167969zm0 0" fill="#ffb400"/><path d="m346.355469 307.078125v93.941406h-218.582031l156.261718-156.261719zm0 0" fill="#5de0bf"/><path d="m344.195312 401.019531h-216.421874l113.285156-113.285156 95.96875 95.964844c4.683594 4.6875 7.167968 10.941406 7.167968 17.320312zm0 0" fill="#5de0bf"/><path d="m319.707031 401.019531h-273.195312v-76.757812l98.226562-98.226563zm0 0" fill="#76ffd9"/><path d="m268.066406 171.992188c0-23.1875-18.773437-41.984376-41.929687-41.984376-23.160157 0-41.933594 18.796876-41.933594 41.984376s18.773437 41.984374 41.933594 41.984374c23.15625 0 41.929687-18.796874 41.929687-41.984374zm0 0" fill="#fff"/><path d="m437.742188 0h-376.589844c-4.613282 0-8.347656 3.738281-8.347656 8.347656v44.703125h-43.957032c-4.609375 0-8.347656 3.734375-8.347656 8.347657v442.253906c0 4.609375 3.738281 8.347656 8.347656 8.347656h273.449219c4.613281 0 8.347656-3.738281 8.347656-8.347656 0-4.613282-3.734375-8.347656-8.347656-8.347656h-265.101563v-425.558594h359.898438v425.558594h-37.699219c-4.609375 0-8.347656 3.734374-8.347656 8.347656 0 4.609375 3.738281 8.347656 8.347656 8.347656h46.046875c4.613282 0 8.347656-3.738281 8.347656-8.347656v-44.703125h43.957032c4.609375 0 8.347656-3.734375 8.347656-8.347657v-442.253906c-.003906-4.609375-3.738281-8.347656-8.351562-8.347656zm-8.347657 442.253906h-35.605469v-380.855468c0-4.613282-3.738281-8.347657-8.347656-8.347657h-315.941406v-36.355469h359.898438v425.558594zm0 0" fill="#434c54"/><g fill="#c1c8d2"><path d="m85.132812 446.765625h79.910157c4.613281 0 8.347656-3.738281 8.347656-8.347656 0-4.613281-3.734375-8.347657-8.347656-8.347657h-79.910157c-4.613281 0-8.347656 3.734376-8.347656 8.347657 0 4.609375 3.734375 8.347656 8.347656 8.347656zm0 0"/><path d="m85.132812 475.59375h182.933594c4.609375 0 8.347656-3.738281 8.347656-8.347656 0-4.613282-3.738281-8.347656-8.347656-8.347656h-182.933594c-4.613281 0-8.347656 3.734374-8.347656 8.347656 0 4.609375 3.734375 8.347656 8.347656 8.347656zm0 0"/></g></svg>