<svg height="316pt" viewBox="0 0 316.66556 316" width="316pt" xmlns="http://www.w3.org/2000/svg"><path d="m229.519531 240.78125h87.4375v76.507812h-87.4375zm0 0" fill="#394d5c"/><path d="m37.316406 307.6875c2.09375-3.210938 3.675782-6.726562 4.683594-10.421875.859375-3.074219 1.398438-6.226563 1.605469-9.410156.074219-1.101563.113281-2.21875.113281-3.351563 0-18.109375-9.785156-32.789062-21.859375-32.789062h163.945313v-185.804688h-163.945313c12.074219 0 21.859375-14.679687 21.859375-32.789062.003906-3.273438-.324219-6.539063-.984375-9.75-.410156-1.996094-.964844-3.960938-1.65625-5.878906-.945313-2.660157-2.210937-5.195313-3.761719-7.554688-1.390625-2.121094-3.085937-4.027344-5.039062-5.648438-.609375-.496093-1.246094-.957031-1.910156-1.378906-1.277344-.816406-2.65625-1.460937-4.101563-1.910156-1.429687-.441406-2.914063-.664062-4.40625-.667969-12.074219 0-21.859375 14.679688-21.859375 32.789063v251.378906c0 18.109375 9.785156 32.789062 21.859375 32.789062 6.445313-.378906 12.261719-3.992187 15.457031-9.601562zm0 0" fill="#fdbd40"/><path d="m185.804688.332031h-163.945313c12.074219 0 21.859375 14.679688 21.859375 32.789063s-9.785156 32.789062-21.859375 32.789062h163.941406c12.074219 0 21.859375-14.679687 21.859375-32.789062 0-18.105469-9.785156-32.789063-21.855468-32.789063zm0 0" fill="#e97424"/><path d="m185.804688 251.710938h-163.945313c12.074219 0 21.859375 14.679687 21.859375 32.789062s-9.785156 32.789062-21.859375 32.789062h163.941406c12.074219 0 21.859375-14.679687 21.859375-32.789062 0-18.105469-9.785156-32.789062-21.855468-32.789062zm0 0" fill="#e97424"/><path d="m240.449219 218.925781h65.578125v21.855469h-65.578125zm0 0" fill="#aabece"/><path d="m240.449219 197.066406h65.578125c6.035156 0 10.929687 4.890625 10.929687 10.929688 0 6.035156-4.894531 10.929687-10.929687 10.929687h-65.578125c-6.035157 0-10.929688-4.894531-10.929688-10.929687 0-6.039063 4.894531-10.929688 10.929688-10.929688zm0 0" fill="#394d5c"/><path d="m262.308594.332031h21.859375v196.734375h-21.859375zm0 0" fill="#5f79ba"/><path d="m262.308594 169.742188s-21.835938-16.394532-27.191406-38.253907l16.195312-10.929687-21.59375-10.929688s-5.195312-60.113281 32.589844-103.832031zm0 0" fill="#87cee9"/><path d="m284.167969 169.742188s21.835937-16.394532 27.191406-38.253907l-16.195313-10.929687 21.59375-10.929688s5.195313-60.113281-32.589843-103.832031zm0 0" fill="#87cee9"/><g fill="#394d5c"><path d="m163.941406 104.164062h-131.152344c-3.019531 0-5.464843-2.445312-5.464843-5.464843s2.445312-5.464844 5.464843-5.464844h131.152344c3.019532 0 5.464844 2.445313 5.464844 5.464844s-2.445312 5.464843-5.464844 5.464843zm0 0"/><path d="m163.941406 158.8125h-131.152344c-3.019531 0-5.464843-2.449219-5.464843-5.464844 0-3.019531 2.445312-5.464844 5.464843-5.464844h131.152344c3.019532 0 5.464844 2.445313 5.464844 5.464844.003906 3.015625-2.445312 5.464844-5.464844 5.464844zm0 0"/><path d="m163.941406 213.460938h-131.152344c-3.019531 0-5.464843-2.449219-5.464843-5.464844 0-3.019532 2.445312-5.464844 5.464843-5.464844h131.152344c3.019532 0 5.464844 2.445312 5.464844 5.464844.003906 3.015625-2.445312 5.464844-5.464844 5.464844zm0 0"/></g><path d="m251.378906 300.894531c-3.015625.003907-5.460937-2.441406-5.464844-5.457031 0-.003906 0-.003906 0-.007812v-32.789063c0-3.015625 2.449219-5.464844 5.464844-5.464844 3.019532 0 5.464844 2.449219 5.464844 5.464844v32.789063c.003906 3.015624-2.441406 5.464843-5.457031 5.464843-.003907 0-.003907 0-.007813 0zm0 0" fill="#aabece"/><path d="m295.097656 289.964844c-3.015625.003906-5.460937-2.441406-5.464844-5.457032 0-.003906 0-.003906 0-.007812v-16.394531h-5.464843c-3.019531 0-5.464844-2.445313-5.464844-5.464844 0-3.015625 2.445313-5.464844 5.464844-5.464844h10.929687c3.015625 0 5.464844 2.445313 5.464844 5.460938v.003906 21.859375c.003906 3.015625-2.441406 5.464844-5.457031 5.464844-.003907 0-.003907 0-.007813 0zm0 0" fill="#aabece"/></svg>