<svg height="512" viewBox="0 0 58 59" width="512" xmlns="http://www.w3.org/2000/svg"><g id="Page-1" fill="none" fill-rule="evenodd"><g id="030---School" fill-rule="nonzero"><path id="Shape" d="m29 2h7c.5522847 0 1 .44771525 1 1v4c0 .55228475-.4477153 1-1 1h-7z" fill="#e04c34"/><path id="Shape" d="m56 26v31c0 1.1045695-.8954305 2-2 2h-50c-1.1045695 0-2-.8954305-2-2v-31z" fill="#f1d24b"/><path id="Shape" d="m39 24h18c.5522847 0 1 .4477153 1 1v2c0 .5522847-.4477153 1-1 1h-56c-.55228475 0-1-.4477153-1-1v-2c0-.5522847.44771525-1 1-1z" fill="#f85360"/><path id="Shape" d="m41 53v4h-24v-4c.0032948-1.1032019.8967981-1.9967052 2-2h20c1.1032019.0032948 1.9967052.8967981 2 2z" fill="#d94d5d"/><path id="Shape" d="m39 17.38v33.62h-20v-33.62l10-5.38z" fill="#edc100"/><path id="Shape" d="m29 13c-.5522847 0-1-.4477153-1-1v-11c0-.55228475.4477153-1 1-1s1 .44771525 1 1v11c0 .5522847-.4477153 1-1 1z" fill="#c7804c"/><path id="Shape" d="m42 20c-.1652255.0002211-.3278628-.04104-.473-.12l-12.527-6.744-12.526 6.744c-.3155201.1825361-.7053695.1789284-1.0174574-.0094157-.3120879-.188344-.4969699-.5315848-.4825185-.8958148.0144515-.36423.2259468-.6917439.5519759-.8547695l13-7c.2959236-.1593002.6520764-.1593002.948 0l13 7c.4028282.2174231.6065938.6806089.4946823 1.1244773-.1119115.4438685-.5109235.7550774-.9686823.7555227z" fill="#f85360"/><path id="Shape" d="m23 51v-9c0-3.3137085 2.6862915-6 6-6s6 2.6862915 6 6v9z" fill="#a1693e"/><circle id="Oval" cx="29" cy="26" fill="#f8e8ab" r="6"/><path id="Shape" d="m29 33c-3.8659932 0-7-3.1340068-7-7s3.1340068-7 7-7 7 3.1340068 7 7c-.0044086 3.8641657-3.1358343 6.9955914-7 7zm0-12c-2.7614237 0-5 2.2385763-5 5s2.2385763 5 5 5 5-2.2385763 5-5c-.0033061-2.7600532-2.2399468-4.9966939-5-5z" fill="#ed9a00"/><path id="Shape" d="m29 28c-.5522847 0-1-.4477153-1-1v-1c.0000566-.2651948.1054506-.5195073.293-.707l1-1c.3923789-.3789722 1.0160848-.3735524 1.4018186.0121814s.3911536 1.0094397.0121814 1.4018186l-.707.707v.586c0 .5522847-.4477153 1-1 1z" fill="#36495f"/><path id="Shape" d="m14.22 33.03c-2.06.13-7.55.79-8.16 4.31-.04008731-.1088561-.06040646-.223998-.06-.34v-3c0-.5522847.44771525-1 1-1h7c.0743887-.0005422.1484725.0095602.22.03z" fill="#86b4cc"/><path id="Shape" d="m15 34v3c0 .5522847-.4477153 1-1 1h-7c-.42028806-.0025142-.79490548-.2655435-.94-.66.61-3.52 6.1-4.18 8.16-4.31.1422647.0287454.2758268.0903895.39.18.2470861.1872793.3915758.4799636.39.79z" fill="#4397d5"/><circle id="Oval" cx="26" cy="45" fill="#ed9a00" r="2"/><path id="Shape" d="m14.22 42.03c-2.06.13-7.55.79-8.16 4.31-.04008731-.1088561-.06040646-.223998-.06-.34v-3c0-.5522847.44771525-1 1-1h7c.0743887-.0005422.1484725.0095602.22.03z" fill="#86b4cc"/><path id="Shape" d="m15 43v3c0 .5522847-.4477153 1-1 1h-7c-.42028806-.0025142-.79490548-.2655435-.94-.66.61-3.52 6.1-4.18 8.16-4.31.1422647.0287454.2758268.0903895.39.18.2470861.1872793.3915758.4799636.39.79z" fill="#4397d5"/><path id="Shape" d="m51.22 33.03c-2.06.13-7.55.79-8.16 4.31-.0400873-.1088561-.0604065-.223998-.06-.34v-3c0-.5522847.4477153-1 1-1h7c.0743887-.0005422.1484725.0095602.22.03z" fill="#86b4cc"/><path id="Shape" d="m52 34v3c0 .5522847-.4477153 1-1 1h-7c-.4202881-.0025142-.7949055-.2655435-.94-.66.61-3.52 6.1-4.18 8.16-4.31.1422647.0287454.2758268.0903895.39.18.2470861.1872793.3915758.4799636.39.79z" fill="#4397d5"/><path id="Shape" d="m51.22 42.03c-2.06.13-7.55.79-8.16 4.31-.0400873-.1088561-.0604065-.223998-.06-.34v-3c0-.5522847.4477153-1 1-1h7c.0743887-.0005422.1484725.0095602.22.03z" fill="#86b4cc"/><path id="Shape" d="m52 43v3c0 .5522847-.4477153 1-1 1h-7c-.4202881-.0025142-.7949055-.2655435-.94-.66.61-3.52 6.1-4.18 8.16-4.31.1422647.0287454.2758268.0903895.39.18.2470861.1872793.3915758.4799636.39.79z" fill="#4397d5"/><path id="Shape" d="m43 57v2h-28v-2c.0032948-1.1032019.8967981-1.9967052 2-2h24c1.1032019.0032948 1.9967052.8967981 2 2z" fill="#f85360"/></g></g></svg>