<svg id="flat" height="512" viewBox="0 0 512 512" width="512" xmlns="http://www.w3.org/2000/svg"><path d="m264 282.6001v205.3999h-240v-205.3999a48.00122 48.00122 0 0 1 22.56006-40.7002l22.52-14.06982 18.91994-11.83008h112l18.91992 11.83008 22.52 14.06982a48.00122 48.00122 0 0 1 22.56008 40.7002z" fill="#f07f2f"/><path d="m218.92 227.83-58.92 84.17h-32l-58.92-84.17 18.92-11.83h112z" fill="#e5e7e9"/><path d="m120.632 301.474 7.368-29.474-8-24v-16h48v16l-8 24 7.368 29.474-7.368 10.526h-32z" fill="#f6bb00"/><path d="m72 80v88.00023a71.99976 71.99976 0 0 0 71.99977 71.99977h.00014a71.99977 71.99977 0 0 0 71.99977-72.00009l-.00036-87.99991-23.99932-32h-88z" fill="#f5c99d"/><path d="m216 88h-68a36 36 0 0 1 -36-36v-4a24 24 0 0 1 24-24h24a56 56 0 0 1 56 56z" fill="#b1792c"/><path d="m72 88v-32a24 24 0 0 1 24-24 16 16 0 0 1 16 16v9.37a30.63 30.63 0 0 1 -30.63 30.63z" fill="#956625"/><path d="m168 112h32v16h-32z" fill="#b1792c"/><path d="m103.951 128v-16h32l.049 16z" fill="#b1792c"/><circle cx="120" cy="144" fill="#956625" r="8"/><path d="m152 200h-8v-16h8a8.00917 8.00917 0 0 0 8-8v-16h16v16a24.0275 24.0275 0 0 1 -24 24z" fill="#c79369"/><path d="m233.00006 120h-57.00006a24 24 0 0 0 -24 24 24 24 0 0 0 24 24h57.00008z" fill="#0078d1"/><path d="m160 392h125.1162a104 104 0 0 0 89.17926-50.49244l41.70454-69.50756-40-32-48.05528 54.06219a53.44419 53.44419 0 0 1 -39.94472 17.93781h-128z" fill="#d45d13"/><path d="m160 280h-32a8 8 0 0 1 0-16h32a8 8 0 0 1 0 16z" fill="#eda600"/><path d="m96 312h77.58067a48 48 0 0 0 32.11033-12.32188l66.309-59.67812 40 32-41.70454 69.50756a104 104 0 0 1 -89.17926 50.49244h-69.1162a88 88 0 0 1 -88-88z" fill="#f07f2f"/><path d="m24 304v184h240v-96h-152a88 88 0 0 1 -88-88z" fill="#de6a1e"/><path d="m173.58105 320h-77.58105v-16h77.58105a39.93936 39.93936 0 0 0 26.75879-10.26855l72.25489-65.0293 10.70312 11.89258-72.25485 65.02927a55.91424 55.91424 0 0 1 -37.46195 14.376z" fill="#de6a1e"/><path d="m368 200-56 72-40-32-1.86429-7.45714a86.87551 86.87551 0 0 1 1.86429-48.54286h96z" fill="#f5c99d"/><path d="m456 192a74.89106 74.89106 0 0 1 -13.9497 43.52956l-26.0503 36.47044-40-32-8-40v-16h88z" fill="#f5c99d"/><path d="m321.00006 104h-57.00006a40 40 0 0 0 -40 40 40 40 0 0 0 40 40h57z" fill="#008ee6"/><path d="m432 88h-72a55.99994 55.99994 0 0 0 -55.99994 55.99994v.00012a55.99994 55.99994 0 0 0 55.99994 55.99994h72z" fill="#009ff5"/><circle cx="432" cy="144" fill="#84d8e8" r="56"/><path d="m432 208a64 64 0 1 1 64-64 64.07207 64.07207 0 0 1 -64 64zm0-112a48 48 0 1 0 48 48 48.05375 48.05375 0 0 0 -48-48z" fill="#3fbdfc"/><g fill="#6dc1d6"><path d="m416 152h16v16h-16z"/><path d="m448 152h16v16h-16z"/></g></svg>