<svg height="512pt" viewBox="0 -46 512.0003 512" width="512pt" xmlns="http://www.w3.org/2000/svg"><path d="m215.988281 107.945312c-11.660156-15.5-31.816406-21.796874-51.460937-15.160156l-57.054688 24.785156c-8.292968 3.601563-15.21875 9.519532-20.070312 17.152344l-82.660156 130.152344c-11.089844 22.191406-2.066407 49.277344 20.128906 60.382812 12.195312 6.097657 27.3125 6.199219 40.238281.46875 12.304687-5.4375 21.296875-15.441406 24.683594-27.453124l123.207031-169.320313c6.621094-4.980469 7.953125-14.386719 2.988281-21.007813zm0 0" fill="#ffbfab"/><path d="m149.996094 330.003906h-60v60c0 16.570313 13.433594 30 30 30 16.570312 0 30-13.429687 30-30 0 16.570313 13.433594 30 30 30 16.570312 0 30-13.429687 30-30v-60zm0 0" fill="#ffbfab"/><path d="m422 180h-27.402344l-160.898437-77.996094-133.203125 176.699219 351.503906 51.300781 30-120-30-30.003906zm0 0" fill="#ffcebf"/><path d="m95.386719 372.628906c-.859375 1.226563-2.140625 2.53125-3.492188 3.414063l-38.097656 28.257812c-4.917969 3.882813-11.996094 4.054688-17.398437.269531-5.40625-3.785156-7.667969-10.496093-5.699219-16.445312l13.523437-45.464844c.367188-1.574218 1.15625-3.21875 2.015625-4.449218l41.78125-7.367188zm0 0" fill="#ffcebf"/><path d="m88.019531 330.847656 7.367188 41.78125c-.863281 1.226563-2.140625 2.53125-3.492188 3.414063l-38.097656 28.257812c-4.917969 3.882813-11.996094 4.054688-17.402344.269531zm0 0" fill="#ffa78f"/><path d="m327.6875 40.867188-25.8125 36.863281-41.78125 7.367187-7.367188-41.78125 25.808594-36.863281c4.820313-6.882813 14.011719-8.5 20.890625-3.683594l24.578125 17.207031c6.878906 4.820313 8.5 14.011719 3.683594 20.890626zm0 0" fill="#54469d"/><path d="m327.6875 40.867188-25.8125 36.863281-41.78125 7.367187 51.621094-73.722656 12.285156 8.601562c6.882812 4.820313 8.503906 14.011719 3.6875 20.890626zm0 0" fill="#392e6e"/><path d="m46.246094 338.21875 206.5-294.914062 49.152344 34.414062-206.5 294.914062zm0 0" fill="#f27281"/><path d="m70.824219 355.425781 206.496093-294.914062 24.574219 17.207031-206.496093 294.914062zm0 0" fill="#e63950"/><path d="m104.996094 270.003906c-24.851563 0-45 20.144532-45 45 0 24.851563 20.148437 45 45 45h116.449218l16.589844 8.289063c28.390625 14.195312 60.191406 21.710937 91.964844 21.710937s65.574219-7.515625 93.960938-21.710937l43.039062-21.523438v-76.765625zm0 0" fill="#ffcebf"/><path d="m473.707031 418.402344 32.226563-23.902344c3.816406-2.828125 6.066406-7.296875 6.066406-12.046875v-187.453125c0-8.28125-6.714844-15-15-15h-45v224.984375c0 11.148437 11.734375 18.402344 21.707031 13.417969zm0 0" fill="#463b85"/></svg>